<svg xmlns="http://www.w3.org/2000/svg" viewBox="0 0 800 500" font-family="monospace">
  <rect width="800" height="500" fill="#0d0d18"/>
  <rect width="800" height="44" fill="#111122"/>
  <circle cx="24" cy="22" r="6" fill="#ff5f57"/><circle cx="44" cy="22" r="6" fill="#febc2e"/><circle cx="64" cy="22" r="6" fill="#28c840"/>
  <text x="400" y="27" fill="#8080a0" font-size="13" text-anchor="middle">bloomingtec.com — multi-tenant infra</text>
  <rect x="300" y="80" width="200" height="70" rx="10" fill="#111122" stroke="#f0a030"/>
  <text x="400" y="120" fill="#f0a030" font-size="14" text-anchor="middle">Laravel API</text>
  <g stroke="#2a2a45" stroke-width="2">
    <line x1="400" y1="150" x2="160" y2="260"/><line x1="400" y1="150" x2="400" y2="260"/><line x1="400" y1="150" x2="640" y2="260"/>
  </g>
  <g fill="#111122" stroke="#4dd4c0">
    <rect x="80" y="260" width="160" height="60" rx="10"/>
    <rect x="320" y="260" width="160" height="60" rx="10"/>
    <rect x="560" y="260" width="160" height="60" rx="10"/>
  </g>
  <g fill="#4dd4c0" font-size="12" text-anchor="middle">
    <text x="160" y="295">tenant_a (pgsql)</text><text x="400" y="295">tenant_b (pgsql)</text><text x="640" y="295">tenant_c (pgsql)</text>
  </g>
  <rect x="300" y="380" width="200" height="60" rx="10" fill="#111122" stroke="#1e1e35"/>
  <text x="400" y="415" fill="#8080a0" font-size="13" text-anchor="middle">Redis queues</text>
  <g stroke="#2a2a45" stroke-width="2" stroke-dasharray="6 4">
    <line x1="160" y1="320" x2="340" y2="390"/><line x1="400" y1="320" x2="400" y2="380"/><line x1="640" y1="320" x2="460" y2="390"/>
  </g>
  <text x="400" y="482" fill="#3a3a55" font-size="12" text-anchor="middle">placeholder — replace with real screenshot</text>
</svg>
