<svg xmlns="http://www.w3.org/2000/svg" viewBox="0 0 800 500" font-family="monospace">
  <rect width="800" height="500" fill="#0d0d18"/>
  <rect width="800" height="44" fill="#111122"/>
  <circle cx="24" cy="22" r="6" fill="#ff5f57"/><circle cx="44" cy="22" r="6" fill="#febc2e"/><circle cx="64" cy="22" r="6" fill="#28c840"/>
  <text x="400" y="27" fill="#8080a0" font-size="13" text-anchor="middle">presidenciadigital.com — portal ciudadano</text>
  <rect x="24" y="68" width="752" height="110" rx="10" fill="#111122" stroke="#1e1e35"/>
  <rect x="48" y="94" width="320" height="16" rx="8" fill="#4dd4c0"/>
  <rect x="48" y="126" width="420" height="10" rx="5" fill="#2a2a45"/>
  <rect x="48" y="146" width="360" height="10" rx="5" fill="#2a2a45"/>
  <g fill="#111122" stroke="#1e1e35">
    <rect x="24" y="202" width="240" height="130" rx="10"/>
    <rect x="280" y="202" width="240" height="130" rx="10"/>
    <rect x="536" y="202" width="240" height="130" rx="10"/>
    <rect x="24" y="356" width="240" height="130" rx="10"/>
    <rect x="280" y="356" width="240" height="130" rx="10"/>
    <rect x="536" y="356" width="240" height="130" rx="10"/>
  </g>
  <g fill="#f0a030" font-size="22" text-anchor="middle">
    <text x="144" y="260">▤</text><text x="400" y="260">✉</text><text x="656" y="260">◔</text>
    <text x="144" y="414">☰</text><text x="400" y="414">⚖</text><text x="656" y="414">☏</text>
  </g>
  <g fill="#8080a0" font-size="12" text-anchor="middle">
    <text x="144" y="300">Trámites</text><text x="400" y="300">Solicitudes</text><text x="656" y="300">Transparencia</text>
    <text x="144" y="454">Documentos</text><text x="400" y="454">Participación</text><text x="656" y="454">Atención</text>
  </g>
</svg>
