<svg xmlns="http://www.w3.org/2000/svg" viewBox="0 0 800 500" font-family="monospace">
  <rect width="800" height="500" fill="#0d0d18"/>
  <rect width="800" height="44" fill="#111122"/>
  <circle cx="24" cy="22" r="6" fill="#ff5f57"/><circle cx="44" cy="22" r="6" fill="#febc2e"/><circle cx="64" cy="22" r="6" fill="#28c840"/>
  <text x="400" y="27" fill="#8080a0" font-size="13" text-anchor="middle">presidenciadigital.com — gestión documental</text>
  <rect x="24" y="68" width="752" height="48" rx="10" fill="#111122" stroke="#4dd4c0"/>
  <text x="48" y="97" fill="#4dd4c0" font-size="14">🔍 búsqueda avanzada de documentos…</text>
  <g fill="#111122" stroke="#1e1e35">
    <rect x="24" y="140" width="752" height="64" rx="8"/>
    <rect x="24" y="216" width="752" height="64" rx="8"/>
    <rect x="24" y="292" width="752" height="64" rx="8"/>
    <rect x="24" y="368" width="752" height="64" rx="8"/>
  </g>
  <g fill="#f0a030" font-size="18">
    <text x="48" y="180">▤</text><text x="48" y="256">▤</text><text x="48" y="332">▤</text><text x="48" y="408">▤</text>
  </g>
  <g fill="#2a2a45">
    <rect x="84" y="160" width="300" height="12" rx="6"/><rect x="84" y="182" width="200" height="8" rx="4"/>
    <rect x="84" y="236" width="340" height="12" rx="6"/><rect x="84" y="258" width="180" height="8" rx="4"/>
    <rect x="84" y="312" width="280" height="12" rx="6"/><rect x="84" y="334" width="220" height="8" rx="4"/>
    <rect x="84" y="388" width="320" height="12" rx="6"/><rect x="84" y="410" width="190" height="8" rx="4"/>
  </g>
  <g fill="#4dd4c0" font-size="11" text-anchor="end">
    <text x="750" y="176">PDF · 1.2 MB</text><text x="750" y="252">PDF · 840 KB</text>
    <text x="750" y="328">DOCX · 320 KB</text><text x="750" y="404">PDF · 2.1 MB</text>
  </g>
  <text x="400" y="482" fill="#3a3a55" font-size="12" text-anchor="middle">placeholder — replace with real screenshot</text>
</svg>
