<svg xmlns="http://www.w3.org/2000/svg" viewBox="0 0 800 500" font-family="monospace">
  <rect width="800" height="500" fill="#0d0d18"/>
  <rect width="800" height="44" fill="#111122"/>
  <circle cx="24" cy="22" r="6" fill="#ff5f57"/><circle cx="44" cy="22" r="6" fill="#febc2e"/><circle cx="64" cy="22" r="6" fill="#28c840"/>
  <text x="400" y="27" fill="#8080a0" font-size="13" text-anchor="middle">presidenciadigital.com — programas sociales</text>
  <rect x="24" y="68" width="360" height="200" rx="10" fill="#111122" stroke="#1e1e35"/>
  <text x="48" y="100" fill="#8080a0" font-size="11">BENEFICIARIOS</text>
  <text x="48" y="150" fill="#f0a030" font-size="36" font-weight="bold">12,480</text>
  <polyline points="48,240 108,220 168,228 228,200 288,208 348,180" fill="none" stroke="#f0a030" stroke-width="3"/>
  <rect x="416" y="68" width="360" height="200" rx="10" fill="#111122" stroke="#1e1e35"/>
  <text x="440" y="100" fill="#8080a0" font-size="11">SOLICITUDES RESUELTAS</text>
  <text x="440" y="150" fill="#4dd4c0" font-size="36" font-weight="bold">94%</text>
  <rect x="440" y="200" width="312" height="14" rx="7" fill="#1e1e35"/>
  <rect x="440" y="200" width="293" height="14" rx="7" fill="#4dd4c0"/>
  <rect x="24" y="292" width="752" height="184" rx="10" fill="#111122" stroke="#1e1e35"/>
  <text x="48" y="324" fill="#8080a0" font-size="11">AVANCE POR PROGRAMA</text>
  <g fill="#1e1e35"><rect x="48" y="348" width="700" height="12" rx="6"/><rect x="48" y="380" width="700" height="12" rx="6"/><rect x="48" y="412" width="700" height="12" rx="6"/><rect x="48" y="444" width="700" height="12" rx="6"/></g>
  <g fill="#f0a030"><rect x="48" y="348" width="560" height="12" rx="6"/><rect x="48" y="380" width="420" height="12" rx="6"/><rect x="48" y="412" width="630" height="12" rx="6"/><rect x="48" y="444" width="280" height="12" rx="6"/></g>
</svg>
